<?xml version="1.0" encoding="UTF-8" standalone="no"?>
<!DOCTYPE svg PUBLIC "-//W3C//DTD SVG 1.1//EN"
 "http://www.w3.org/Graphics/SVG/1.1/DTD/svg11.dtd">
<!-- Generated by graphviz version 3.0.0 (20220226.1711)
 -->
<!-- Title: dependencies Pages: 1 -->
<svg width="604pt" height="247pt"
 viewBox="0.00 0.00 604.00 246.80" xmlns="http://www.w3.org/2000/svg" xmlns:xlink="http://www.w3.org/1999/xlink">
<g id="graph0" class="graph" transform="scale(1 1) rotate(0) translate(4 242.8)">
<title>dependencies</title>
<polygon fill="white" stroke="transparent" points="-4,4 -4,-242.8 600,-242.8 600,4 -4,4"/>
<text text-anchor="middle" x="298" y="-8.2" font-family="sans-serif" font-size="14.00">dependencies</text>
<g id="clust1" class="cluster">
<title>cluster_AuthModule</title>
<polygon fill="none" stroke="black" stroke-dasharray="1,5" points="8,-32.8 8,-230.8 588,-230.8 588,-32.8 8,-32.8"/>
</g>
<g id="clust6" class="cluster">
<title>cluster_AuthModule_providers</title>
<polygon fill="none" stroke="black" points="126,-40.8 126,-92.8 580,-92.8 580,-40.8 126,-40.8"/>
</g>
<g id="clust3" class="cluster">
<title>cluster_AuthModule_imports</title>
<polygon fill="none" stroke="black" points="16,-40.8 16,-92.8 118,-92.8 118,-40.8 16,-40.8"/>
</g>
<g id="clust4" class="cluster">
<title>cluster_AuthModule_exports</title>
<polygon fill="none" stroke="black" points="89,-170.8 89,-222.8 456,-222.8 456,-170.8 89,-170.8"/>
</g>
<!-- UserModule -->
<g id="node1" class="node">
<title>UserModule</title>
<polygon fill="#8dd3c7" stroke="black" points="109.99,-84.8 106.99,-88.8 85.99,-88.8 82.99,-84.8 24.01,-84.8 24.01,-48.8 109.99,-48.8 109.99,-84.8"/>
<text text-anchor="middle" x="67" y="-62.6" font-family="Times,serif" font-size="14.00">UserModule</text>
</g>
<!-- AuthModule -->
<g id="node2" class="node">
<title>AuthModule</title>
<polygon fill="#8dd3c7" stroke="black" points="320.55,-149.8 317.55,-153.8 296.55,-153.8 293.55,-149.8 233.45,-149.8 233.45,-113.8 320.55,-113.8 320.55,-149.8"/>
<text text-anchor="middle" x="277" y="-127.6" font-family="Times,serif" font-size="14.00">AuthModule</text>
</g>
<!-- UserModule&#45;&gt;AuthModule -->
<g id="edge1" class="edge">
<title>UserModule&#45;&gt;AuthModule</title>
<path fill="none" stroke="black" d="M103.29,-84.82C103.29,-102.17 103.29,-125.8 103.29,-125.8 103.29,-125.8 223.17,-125.8 223.17,-125.8"/>
<polygon fill="black" stroke="black" points="223.17,-129.3 233.17,-125.8 223.17,-122.3 223.17,-129.3"/>
</g>
<!-- AuthService  -->
<g id="node3" class="node">
<title>AuthService </title>
<polygon fill="#fb8072" stroke="black" points="447.98,-214.8 358.02,-214.8 358.02,-178.8 447.98,-178.8 447.98,-214.8"/>
<text text-anchor="middle" x="403" y="-192.6" font-family="Times,serif" font-size="14.00">AuthService </text>
</g>
<!-- AuthModule&#45;&gt;AuthService  -->
<g id="edge2" class="edge">
<title>AuthModule&#45;&gt;AuthService </title>
<path fill="none" stroke="black" stroke-dasharray="5,2" d="M320.72,-137.8C355.08,-137.8 397.16,-137.8 397.16,-137.8 397.16,-137.8 397.16,-168.78 397.16,-168.78"/>
<polygon fill="black" stroke="black" points="393.66,-168.78 397.16,-178.78 400.66,-168.78 393.66,-168.78"/>
</g>
<!-- CaslAbilityFactory  -->
<g id="node4" class="node">
<title>CaslAbilityFactory </title>
<polygon fill="#fb8072" stroke="black" points="340.32,-214.8 213.68,-214.8 213.68,-178.8 340.32,-178.8 340.32,-214.8"/>
<text text-anchor="middle" x="277" y="-192.6" font-family="Times,serif" font-size="14.00">CaslAbilityFactory </text>
</g>
<!-- AuthModule&#45;&gt;CaslAbilityFactory  -->
<g id="edge3" class="edge">
<title>AuthModule&#45;&gt;CaslAbilityFactory </title>
<path fill="none" stroke="black" stroke-dasharray="5,2" d="M277,-149.91C277,-149.91 277,-168.79 277,-168.79"/>
<polygon fill="black" stroke="black" points="273.5,-168.79 277,-178.79 280.5,-168.79 273.5,-168.79"/>
</g>
<!-- PoliciesGuard  -->
<g id="node5" class="node">
<title>PoliciesGuard </title>
<polygon fill="#fb8072" stroke="black" points="195.32,-214.8 96.68,-214.8 96.68,-178.8 195.32,-178.8 195.32,-214.8"/>
<text text-anchor="middle" x="146" y="-192.6" font-family="Times,serif" font-size="14.00">PoliciesGuard </text>
</g>
<!-- AuthModule&#45;&gt;PoliciesGuard  -->
<g id="edge4" class="edge">
<title>AuthModule&#45;&gt;PoliciesGuard </title>
<path fill="none" stroke="black" stroke-dasharray="5,2" d="M233.33,-137.8C201.85,-137.8 164.89,-137.8 164.89,-137.8 164.89,-137.8 164.89,-168.78 164.89,-168.78"/>
<polygon fill="black" stroke="black" points="161.39,-168.78 164.89,-178.78 168.39,-168.78 161.39,-168.78"/>
</g>
<!-- AuthService -->
<g id="node6" class="node">
<title>AuthService</title>
<ellipse fill="#fdb462" stroke="black" cx="513" cy="-66.8" rx="59.11" ry="18"/>
<text text-anchor="middle" x="513" y="-62.6" font-family="Times,serif" font-size="14.00">AuthService</text>
</g>
<!-- AuthService&#45;&gt;AuthModule -->
<g id="edge5" class="edge">
<title>AuthService&#45;&gt;AuthModule</title>
<path fill="none" stroke="black" d="M513,-84.82C513,-102.17 513,-125.8 513,-125.8 513,-125.8 330.56,-125.8 330.56,-125.8"/>
<polygon fill="black" stroke="black" points="330.56,-122.3 320.56,-125.8 330.56,-129.3 330.56,-122.3"/>
</g>
<!-- CaslAbilityFactory -->
<g id="node7" class="node">
<title>CaslAbilityFactory</title>
<ellipse fill="#fdb462" stroke="black" cx="351" cy="-66.8" rx="85.13" ry="18"/>
<text text-anchor="middle" x="351" y="-62.6" font-family="Times,serif" font-size="14.00">CaslAbilityFactory</text>
</g>
<!-- CaslAbilityFactory&#45;&gt;AuthModule -->
<g id="edge6" class="edge">
<title>CaslAbilityFactory&#45;&gt;AuthModule</title>
<path fill="none" stroke="black" d="M293.35,-80.27C293.35,-80.27 293.35,-103.66 293.35,-103.66"/>
<polygon fill="black" stroke="black" points="289.85,-103.66 293.35,-113.66 296.85,-103.66 289.85,-103.66"/>
</g>
<!-- JwtStrategy -->
<g id="node8" class="node">
<title>JwtStrategy</title>
<ellipse fill="#fdb462" stroke="black" cx="191" cy="-66.8" rx="56.77" ry="18"/>
<text text-anchor="middle" x="191" y="-62.6" font-family="Times,serif" font-size="14.00">JwtStrategy</text>
</g>
<!-- JwtStrategy&#45;&gt;AuthModule -->
<g id="edge7" class="edge">
<title>JwtStrategy&#45;&gt;AuthModule</title>
<path fill="none" stroke="black" d="M240.43,-75.84C240.43,-75.84 240.43,-103.76 240.43,-103.76"/>
<polygon fill="black" stroke="black" points="236.93,-103.76 240.43,-113.76 243.93,-103.76 236.93,-103.76"/>
</g>
</g>
</svg>
