<?xml version="1.0" encoding="UTF-8" standalone="no"?>
<!DOCTYPE svg PUBLIC "-//W3C//DTD SVG 1.1//EN"
 "http://www.w3.org/Graphics/SVG/1.1/DTD/svg11.dtd">
<!-- Generated by graphviz version 3.0.0 (20220226.1711)
 -->
<!-- Title: dependencies Pages: 1 -->
<svg width="604pt" height="247pt"
 viewBox="0.00 0.00 604.00 246.80" xmlns="http://www.w3.org/2000/svg" xmlns:xlink="http://www.w3.org/1999/xlink">
<g id="graph0" class="graph" transform="scale(1 1) rotate(0) translate(4 242.8)">
<title>dependencies</title>
<polygon fill="white" stroke="transparent" points="-4,4 -4,-242.8 600,-242.8 600,4 -4,4"/>
<text text-anchor="middle" x="298" y="-8.2" font-family="sans-serif" font-size="14.00">dependencies</text>
<g id="clust1" class="cluster">
<title>cluster_AuthModule</title>
<polygon fill="none" stroke="black" stroke-dasharray="1,5" points="8,-32.8 8,-230.8 588,-230.8 588,-32.8 8,-32.8"/>
</g>
<g id="clust3" class="cluster">
<title>cluster_AuthModule_imports</title>
<polygon fill="none" stroke="black" points="478,-40.8 478,-92.8 580,-92.8 580,-40.8 478,-40.8"/>
</g>
<g id="clust6" class="cluster">
<title>cluster_AuthModule_providers</title>
<polygon fill="none" stroke="black" points="16,-40.8 16,-92.8 470,-92.8 470,-40.8 16,-40.8"/>
</g>
<g id="clust4" class="cluster">
<title>cluster_AuthModule_exports</title>
<polygon fill="none" stroke="black" points="133,-170.8 133,-222.8 500,-222.8 500,-170.8 133,-170.8"/>
</g>
<!-- UserModule -->
<g id="node1" class="node">
<title>UserModule</title>
<polygon fill="#8dd3c7" stroke="black" points="571.99,-84.8 568.99,-88.8 547.99,-88.8 544.99,-84.8 486.01,-84.8 486.01,-48.8 571.99,-48.8 571.99,-84.8"/>
<text text-anchor="middle" x="529" y="-62.6" font-family="Times,serif" font-size="14.00">UserModule</text>
</g>
<!-- AuthModule -->
<g id="node2" class="node">
<title>AuthModule</title>
<polygon fill="#8dd3c7" stroke="black" points="364.55,-149.8 361.55,-153.8 340.55,-153.8 337.55,-149.8 277.45,-149.8 277.45,-113.8 364.55,-113.8 364.55,-149.8"/>
<text text-anchor="middle" x="321" y="-127.6" font-family="Times,serif" font-size="14.00">AuthModule</text>
</g>
<!-- UserModule&#45;&gt;AuthModule -->
<g id="edge1" class="edge">
<title>UserModule&#45;&gt;AuthModule</title>
<path fill="none" stroke="black" d="M531.87,-84.82C531.87,-102.17 531.87,-125.8 531.87,-125.8 531.87,-125.8 374.69,-125.8 374.69,-125.8"/>
<polygon fill="black" stroke="black" points="374.69,-122.3 364.69,-125.8 374.69,-129.3 374.69,-122.3"/>
</g>
<!-- AuthService  -->
<g id="node3" class="node">
<title>AuthService </title>
<polygon fill="#fb8072" stroke="black" points="491.98,-214.8 402.02,-214.8 402.02,-178.8 491.98,-178.8 491.98,-214.8"/>
<text text-anchor="middle" x="447" y="-192.6" font-family="Times,serif" font-size="14.00">AuthService </text>
</g>
<!-- AuthModule&#45;&gt;AuthService  -->
<g id="edge2" class="edge">
<title>AuthModule&#45;&gt;AuthService </title>
<path fill="none" stroke="black" stroke-dasharray="5,2" d="M364.66,-137.8C395.84,-137.8 432.28,-137.8 432.28,-137.8 432.28,-137.8 432.28,-168.78 432.28,-168.78"/>
<polygon fill="black" stroke="black" points="428.78,-168.78 432.28,-178.78 435.78,-168.78 428.78,-168.78"/>
</g>
<!-- CaslAbilityFactory  -->
<g id="node4" class="node">
<title>CaslAbilityFactory </title>
<polygon fill="#fb8072" stroke="black" points="384.32,-214.8 257.68,-214.8 257.68,-178.8 384.32,-178.8 384.32,-214.8"/>
<text text-anchor="middle" x="321" y="-192.6" font-family="Times,serif" font-size="14.00">CaslAbilityFactory </text>
</g>
<!-- AuthModule&#45;&gt;CaslAbilityFactory  -->
<g id="edge3" class="edge">
<title>AuthModule&#45;&gt;CaslAbilityFactory </title>
<path fill="none" stroke="black" stroke-dasharray="5,2" d="M321,-149.91C321,-149.91 321,-168.79 321,-168.79"/>
<polygon fill="black" stroke="black" points="317.5,-168.79 321,-178.79 324.5,-168.79 317.5,-168.79"/>
</g>
<!-- PoliciesGuard  -->
<g id="node5" class="node">
<title>PoliciesGuard </title>
<polygon fill="#fb8072" stroke="black" points="239.32,-214.8 140.68,-214.8 140.68,-178.8 239.32,-178.8 239.32,-214.8"/>
<text text-anchor="middle" x="190" y="-192.6" font-family="Times,serif" font-size="14.00">PoliciesGuard </text>
</g>
<!-- AuthModule&#45;&gt;PoliciesGuard  -->
<g id="edge4" class="edge">
<title>AuthModule&#45;&gt;PoliciesGuard </title>
<path fill="none" stroke="black" stroke-dasharray="5,2" d="M277.17,-137.8C241.72,-137.8 197.67,-137.8 197.67,-137.8 197.67,-137.8 197.67,-168.78 197.67,-168.78"/>
<polygon fill="black" stroke="black" points="194.17,-168.78 197.67,-178.78 201.17,-168.78 194.17,-168.78"/>
</g>
<!-- AuthService -->
<g id="node6" class="node">
<title>AuthService</title>
<ellipse fill="#fdb462" stroke="black" cx="403" cy="-66.8" rx="59.11" ry="18"/>
<text text-anchor="middle" x="403" y="-62.6" font-family="Times,serif" font-size="14.00">AuthService</text>
</g>
<!-- AuthService&#45;&gt;AuthModule -->
<g id="edge5" class="edge">
<title>AuthService&#45;&gt;AuthModule</title>
<path fill="none" stroke="black" d="M354.23,-77.24C354.23,-77.24 354.23,-103.77 354.23,-103.77"/>
<polygon fill="black" stroke="black" points="350.73,-103.77 354.23,-113.77 357.73,-103.77 350.73,-103.77"/>
</g>
<!-- CaslAbilityFactory -->
<g id="node7" class="node">
<title>CaslAbilityFactory</title>
<ellipse fill="#fdb462" stroke="black" cx="241" cy="-66.8" rx="85.13" ry="18"/>
<text text-anchor="middle" x="241" y="-62.6" font-family="Times,serif" font-size="14.00">CaslAbilityFactory</text>
</g>
<!-- CaslAbilityFactory&#45;&gt;AuthModule -->
<g id="edge6" class="edge">
<title>CaslAbilityFactory&#45;&gt;AuthModule</title>
<path fill="none" stroke="black" d="M301.65,-79.64C301.65,-79.64 301.65,-103.32 301.65,-103.32"/>
<polygon fill="black" stroke="black" points="298.15,-103.32 301.65,-113.32 305.15,-103.32 298.15,-103.32"/>
</g>
<!-- JwtStrategy -->
<g id="node8" class="node">
<title>JwtStrategy</title>
<ellipse fill="#fdb462" stroke="black" cx="81" cy="-66.8" rx="56.77" ry="18"/>
<text text-anchor="middle" x="81" y="-62.6" font-family="Times,serif" font-size="14.00">JwtStrategy</text>
</g>
<!-- JwtStrategy&#45;&gt;AuthModule -->
<g id="edge7" class="edge">
<title>JwtStrategy&#45;&gt;AuthModule</title>
<path fill="none" stroke="black" d="M81,-84.82C81,-102.17 81,-125.8 81,-125.8 81,-125.8 267.26,-125.8 267.26,-125.8"/>
<polygon fill="black" stroke="black" points="267.26,-129.3 277.26,-125.8 267.26,-122.3 267.26,-129.3"/>
</g>
</g>
</svg>
