<?xml version="1.0" encoding="UTF-8" standalone="no"?>
<!DOCTYPE svg PUBLIC "-//W3C//DTD SVG 1.1//EN"
 "http://www.w3.org/Graphics/SVG/1.1/DTD/svg11.dtd">
<!-- Generated by graphviz version 3.0.0 (20220226.1711)
 -->
<!-- Title: dependencies Pages: 1 -->
<svg width="334pt" height="174pt"
 viewBox="0.00 0.00 334.00 173.80" xmlns="http://www.w3.org/2000/svg" xmlns:xlink="http://www.w3.org/1999/xlink">
<g id="graph0" class="graph" transform="scale(1 1) rotate(0) translate(4 169.8)">
<title>dependencies</title>
<polygon fill="white" stroke="transparent" points="-4,4 -4,-169.8 330,-169.8 330,4 -4,4"/>
<text text-anchor="middle" x="163" y="-8.2" font-family="sans-serif" font-size="14.00">dependencies</text>
<g id="clust1" class="cluster">
<title>cluster_PermissionModule</title>
<polygon fill="none" stroke="black" stroke-dasharray="1,5" points="8,-32.8 8,-157.8 318,-157.8 318,-32.8 8,-32.8"/>
</g>
<g id="clust3" class="cluster">
<title>cluster_PermissionModule_imports</title>
<polygon fill="none" stroke="black" points="206,-40.8 206,-92.8 310,-92.8 310,-40.8 206,-40.8"/>
</g>
<g id="clust6" class="cluster">
<title>cluster_PermissionModule_providers</title>
<polygon fill="none" stroke="black" points="16,-40.8 16,-92.8 198,-92.8 198,-40.8 16,-40.8"/>
</g>
<!-- AuthModule -->
<g id="node1" class="node">
<title>AuthModule</title>
<polygon fill="#8dd3c7" stroke="black" points="301.55,-84.8 298.55,-88.8 277.55,-88.8 274.55,-84.8 214.45,-84.8 214.45,-48.8 301.55,-48.8 301.55,-84.8"/>
<text text-anchor="middle" x="258" y="-62.6" font-family="Times,serif" font-size="14.00">AuthModule</text>
</g>
<!-- PermissionModule -->
<g id="node2" class="node">
<title>PermissionModule</title>
<polygon fill="#8dd3c7" stroke="black" points="238.78,-149.8 235.78,-153.8 214.78,-153.8 211.78,-149.8 117.22,-149.8 117.22,-113.8 238.78,-113.8 238.78,-149.8"/>
<text text-anchor="middle" x="178" y="-127.6" font-family="Times,serif" font-size="14.00">PermissionModule</text>
</g>
<!-- AuthModule&#45;&gt;PermissionModule -->
<g id="edge1" class="edge">
<title>AuthModule&#45;&gt;PermissionModule</title>
<path fill="none" stroke="black" d="M226.56,-84.91C226.56,-84.91 226.56,-103.79 226.56,-103.79"/>
<polygon fill="black" stroke="black" points="223.06,-103.79 226.56,-113.79 230.06,-103.79 223.06,-103.79"/>
</g>
<!-- PermissionService -->
<g id="node3" class="node">
<title>PermissionService</title>
<ellipse fill="#fdb462" stroke="black" cx="107" cy="-66.8" rx="82.83" ry="18"/>
<text text-anchor="middle" x="107" y="-62.6" font-family="Times,serif" font-size="14.00">PermissionService</text>
</g>
<!-- PermissionService&#45;&gt;PermissionModule -->
<g id="edge2" class="edge">
<title>PermissionService&#45;&gt;PermissionModule</title>
<path fill="none" stroke="black" d="M153.51,-81.88C153.51,-81.88 153.51,-103.56 153.51,-103.56"/>
<polygon fill="black" stroke="black" points="150.01,-103.56 153.51,-113.56 157.01,-103.56 150.01,-103.56"/>
</g>
</g>
</svg>
