<?xml version="1.0" encoding="UTF-8" standalone="no"?>
<!DOCTYPE svg PUBLIC "-//W3C//DTD SVG 1.1//EN"
 "http://www.w3.org/Graphics/SVG/1.1/DTD/svg11.dtd">
<!-- Generated by graphviz version 3.0.0 (20220226.1711)
 -->
<!-- Title: dependencies Pages: 1 -->
<svg width="606pt" height="174pt"
 viewBox="0.00 0.00 606.00 173.80" xmlns="http://www.w3.org/2000/svg" xmlns:xlink="http://www.w3.org/1999/xlink">
<g id="graph0" class="graph" transform="scale(1 1) rotate(0) translate(4 169.8)">
<title>dependencies</title>
<polygon fill="white" stroke="transparent" points="-4,4 -4,-169.8 602,-169.8 602,4 -4,4"/>
<text text-anchor="middle" x="299" y="-8.2" font-family="sans-serif" font-size="14.00">dependencies</text>
<g id="clust1" class="cluster">
<title>cluster_AppModule</title>
<polygon fill="none" stroke="black" stroke-dasharray="1,5" points="8,-32.8 8,-157.8 590,-157.8 590,-32.8 8,-32.8"/>
</g>
<g id="clust3" class="cluster">
<title>cluster_AppModule_imports</title>
<polygon fill="none" stroke="black" points="16,-40.8 16,-92.8 582,-92.8 582,-40.8 16,-40.8"/>
</g>
<!-- AuthModule -->
<g id="node1" class="node">
<title>AuthModule</title>
<polygon fill="#8dd3c7" stroke="black" points="573.55,-84.8 570.55,-88.8 549.55,-88.8 546.55,-84.8 486.45,-84.8 486.45,-48.8 573.55,-48.8 573.55,-84.8"/>
<text text-anchor="middle" x="530" y="-62.6" font-family="Times,serif" font-size="14.00">AuthModule</text>
</g>
<!-- AppModule -->
<g id="node6" class="node">
<title>AppModule</title>
<polygon fill="#8dd3c7" stroke="black" points="334.66,-149.8 331.66,-153.8 310.66,-153.8 307.66,-149.8 251.34,-149.8 251.34,-113.8 334.66,-113.8 334.66,-149.8"/>
<text text-anchor="middle" x="293" y="-127.6" font-family="Times,serif" font-size="14.00">AppModule</text>
</g>
<!-- AuthModule&#45;&gt;AppModule -->
<g id="edge1" class="edge">
<title>AuthModule&#45;&gt;AppModule</title>
<path fill="none" stroke="black" d="M530,-85.08C530,-106.12 530,-137.8 530,-137.8 530,-137.8 344.83,-137.8 344.83,-137.8"/>
<polygon fill="black" stroke="black" points="344.83,-134.3 334.83,-137.8 344.83,-141.3 344.83,-134.3"/>
</g>
<!-- HealthModule -->
<g id="node2" class="node">
<title>HealthModule</title>
<polygon fill="#8dd3c7" stroke="black" points="468.37,-84.8 465.37,-88.8 444.37,-88.8 441.37,-84.8 371.63,-84.8 371.63,-48.8 468.37,-48.8 468.37,-84.8"/>
<text text-anchor="middle" x="420" y="-62.6" font-family="Times,serif" font-size="14.00">HealthModule</text>
</g>
<!-- HealthModule&#45;&gt;AppModule -->
<g id="edge2" class="edge">
<title>HealthModule&#45;&gt;AppModule</title>
<path fill="none" stroke="black" d="M420,-84.82C420,-102.17 420,-125.8 420,-125.8 420,-125.8 344.94,-125.8 344.94,-125.8"/>
<polygon fill="black" stroke="black" points="344.94,-122.3 334.94,-125.8 344.94,-129.3 344.94,-122.3"/>
</g>
<!-- PermissionModule -->
<g id="node3" class="node">
<title>PermissionModule</title>
<polygon fill="#8dd3c7" stroke="black" points="353.78,-84.8 350.78,-88.8 329.78,-88.8 326.78,-84.8 232.22,-84.8 232.22,-48.8 353.78,-48.8 353.78,-84.8"/>
<text text-anchor="middle" x="293" y="-62.6" font-family="Times,serif" font-size="14.00">PermissionModule</text>
</g>
<!-- PermissionModule&#45;&gt;AppModule -->
<g id="edge3" class="edge">
<title>PermissionModule&#45;&gt;AppModule</title>
<path fill="none" stroke="black" d="M293,-84.91C293,-84.91 293,-103.79 293,-103.79"/>
<polygon fill="black" stroke="black" points="289.5,-103.79 293,-113.79 296.5,-103.79 289.5,-103.79"/>
</g>
<!-- RoleModule -->
<g id="node4" class="node">
<title>RoleModule</title>
<polygon fill="#8dd3c7" stroke="black" points="213.99,-84.8 210.99,-88.8 189.99,-88.8 186.99,-84.8 128.01,-84.8 128.01,-48.8 213.99,-48.8 213.99,-84.8"/>
<text text-anchor="middle" x="171" y="-62.6" font-family="Times,serif" font-size="14.00">RoleModule</text>
</g>
<!-- RoleModule&#45;&gt;AppModule -->
<g id="edge4" class="edge">
<title>RoleModule&#45;&gt;AppModule</title>
<path fill="none" stroke="black" d="M171,-84.82C171,-102.17 171,-125.8 171,-125.8 171,-125.8 241.01,-125.8 241.01,-125.8"/>
<polygon fill="black" stroke="black" points="241.01,-129.3 251.01,-125.8 241.01,-122.3 241.01,-129.3"/>
</g>
<!-- UserModule -->
<g id="node5" class="node">
<title>UserModule</title>
<polygon fill="#8dd3c7" stroke="black" points="109.99,-84.8 106.99,-88.8 85.99,-88.8 82.99,-84.8 24.01,-84.8 24.01,-48.8 109.99,-48.8 109.99,-84.8"/>
<text text-anchor="middle" x="67" y="-62.6" font-family="Times,serif" font-size="14.00">UserModule</text>
</g>
<!-- UserModule&#45;&gt;AppModule -->
<g id="edge5" class="edge">
<title>UserModule&#45;&gt;AppModule</title>
<path fill="none" stroke="black" d="M67,-85.08C67,-106.12 67,-137.8 67,-137.8 67,-137.8 241.28,-137.8 241.28,-137.8"/>
<polygon fill="black" stroke="black" points="241.28,-141.3 251.28,-137.8 241.28,-134.3 241.28,-141.3"/>
</g>
</g>
</svg>
