<?xml version="1.0" encoding="UTF-8" standalone="no"?>
<!DOCTYPE svg PUBLIC "-//W3C//DTD SVG 1.1//EN"
 "http://www.w3.org/Graphics/SVG/1.1/DTD/svg11.dtd">
<!-- Generated by graphviz version 3.0.0 (20220226.1711)
 -->
<!-- Title: dependencies Pages: 1 -->
<svg width="717pt" height="174pt"
 viewBox="0.00 0.00 717.00 173.80" xmlns="http://www.w3.org/2000/svg" xmlns:xlink="http://www.w3.org/1999/xlink">
<g id="graph0" class="graph" transform="scale(1 1) rotate(0) translate(4 169.8)">
<title>dependencies</title>
<polygon fill="white" stroke="transparent" points="-4,4 -4,-169.8 713,-169.8 713,4 -4,4"/>
<text text-anchor="middle" x="354.5" y="-8.2" font-family="sans-serif" font-size="14.00">dependencies</text>
<g id="clust1" class="cluster">
<title>cluster_AppModule</title>
<polygon fill="none" stroke="black" stroke-dasharray="1,5" points="8,-32.8 8,-157.8 701,-157.8 701,-32.8 8,-32.8"/>
</g>
<g id="clust3" class="cluster">
<title>cluster_AppModule_imports</title>
<polygon fill="none" stroke="black" points="371,-40.8 371,-92.8 693,-92.8 693,-40.8 371,-40.8"/>
</g>
<g id="clust6" class="cluster">
<title>cluster_AppModule_providers</title>
<polygon fill="none" stroke="black" points="16,-40.8 16,-92.8 363,-92.8 363,-40.8 16,-40.8"/>
</g>
<!-- AuthModule -->
<g id="node1" class="node">
<title>AuthModule</title>
<polygon fill="#8dd3c7" stroke="black" points="684.55,-84.8 681.55,-88.8 660.55,-88.8 657.55,-84.8 597.45,-84.8 597.45,-48.8 684.55,-48.8 684.55,-84.8"/>
<text text-anchor="middle" x="641" y="-62.6" font-family="Times,serif" font-size="14.00">AuthModule</text>
</g>
<!-- AppModule -->
<g id="node4" class="node">
<title>AppModule</title>
<polygon fill="#8dd3c7" stroke="black" points="463.66,-149.8 460.66,-153.8 439.66,-153.8 436.66,-149.8 380.34,-149.8 380.34,-113.8 463.66,-113.8 463.66,-149.8"/>
<text text-anchor="middle" x="422" y="-127.6" font-family="Times,serif" font-size="14.00">AppModule</text>
</g>
<!-- AuthModule&#45;&gt;AppModule -->
<g id="edge1" class="edge">
<title>AuthModule&#45;&gt;AppModule</title>
<path fill="none" stroke="black" d="M641,-85.08C641,-106.12 641,-137.8 641,-137.8 641,-137.8 473.71,-137.8 473.71,-137.8"/>
<polygon fill="black" stroke="black" points="473.71,-134.3 463.71,-137.8 473.71,-141.3 473.71,-134.3"/>
</g>
<!-- HealthModule -->
<g id="node2" class="node">
<title>HealthModule</title>
<polygon fill="#8dd3c7" stroke="black" points="579.37,-84.8 576.37,-88.8 555.37,-88.8 552.37,-84.8 482.63,-84.8 482.63,-48.8 579.37,-48.8 579.37,-84.8"/>
<text text-anchor="middle" x="531" y="-62.6" font-family="Times,serif" font-size="14.00">HealthModule</text>
</g>
<!-- HealthModule&#45;&gt;AppModule -->
<g id="edge2" class="edge">
<title>HealthModule&#45;&gt;AppModule</title>
<path fill="none" stroke="black" d="M531,-84.82C531,-102.17 531,-125.8 531,-125.8 531,-125.8 473.83,-125.8 473.83,-125.8"/>
<polygon fill="black" stroke="black" points="473.83,-122.3 463.83,-125.8 473.83,-129.3 473.83,-122.3"/>
</g>
<!-- UserModule -->
<g id="node3" class="node">
<title>UserModule</title>
<polygon fill="#8dd3c7" stroke="black" points="464.99,-84.8 461.99,-88.8 440.99,-88.8 437.99,-84.8 379.01,-84.8 379.01,-48.8 464.99,-48.8 464.99,-84.8"/>
<text text-anchor="middle" x="422" y="-62.6" font-family="Times,serif" font-size="14.00">UserModule</text>
</g>
<!-- UserModule&#45;&gt;AppModule -->
<g id="edge3" class="edge">
<title>UserModule&#45;&gt;AppModule</title>
<path fill="none" stroke="black" d="M422,-84.91C422,-84.91 422,-103.79 422,-103.79"/>
<polygon fill="black" stroke="black" points="418.5,-103.79 422,-113.79 425.5,-103.79 418.5,-103.79"/>
</g>
<!-- AppService -->
<g id="node5" class="node">
<title>AppService</title>
<ellipse fill="#fdb462" stroke="black" cx="298" cy="-66.8" rx="56.75" ry="18"/>
<text text-anchor="middle" x="298" y="-62.6" font-family="Times,serif" font-size="14.00">AppService</text>
</g>
<!-- AppService&#45;&gt;AppModule -->
<g id="edge4" class="edge">
<title>AppService&#45;&gt;AppModule</title>
<path fill="none" stroke="black" d="M298,-84.82C298,-102.17 298,-125.8 298,-125.8 298,-125.8 370.02,-125.8 370.02,-125.8"/>
<polygon fill="black" stroke="black" points="370.02,-129.3 380.02,-125.8 370.02,-122.3 370.02,-129.3"/>
</g>
<!-- PostgresConfigService -->
<g id="node6" class="node">
<title>PostgresConfigService</title>
<ellipse fill="#fdb462" stroke="black" cx="124" cy="-66.8" rx="99.6" ry="18"/>
<text text-anchor="middle" x="124" y="-62.6" font-family="Times,serif" font-size="14.00">PostgresConfigService</text>
</g>
<!-- PostgresConfigService&#45;&gt;AppModule -->
<g id="edge5" class="edge">
<title>PostgresConfigService&#45;&gt;AppModule</title>
<path fill="none" stroke="black" d="M124,-85.08C124,-106.12 124,-137.8 124,-137.8 124,-137.8 370.25,-137.8 370.25,-137.8"/>
<polygon fill="black" stroke="black" points="370.25,-141.3 380.25,-137.8 370.25,-134.3 370.25,-141.3"/>
</g>
</g>
</svg>
