<?xml version="1.0" encoding="UTF-8" standalone="no"?>
<!DOCTYPE svg PUBLIC "-//W3C//DTD SVG 1.1//EN"
 "http://www.w3.org/Graphics/SVG/1.1/DTD/svg11.dtd">
<!-- Generated by graphviz version 3.0.0 (20220226.1711)
 -->
<!-- Title: dependencies Pages: 1 -->
<svg width="284pt" height="174pt"
 viewBox="0.00 0.00 284.00 173.80" xmlns="http://www.w3.org/2000/svg" xmlns:xlink="http://www.w3.org/1999/xlink">
<g id="graph0" class="graph" transform="scale(1 1) rotate(0) translate(4 169.8)">
<title>dependencies</title>
<polygon fill="white" stroke="transparent" points="-4,4 -4,-169.8 280,-169.8 280,4 -4,4"/>
<text text-anchor="middle" x="138" y="-8.2" font-family="sans-serif" font-size="14.00">dependencies</text>
<g id="clust1" class="cluster">
<title>cluster_RoleModule</title>
<polygon fill="none" stroke="black" stroke-dasharray="1,5" points="8,-32.8 8,-157.8 268,-157.8 268,-32.8 8,-32.8"/>
</g>
<g id="clust6" class="cluster">
<title>cluster_RoleModule_providers</title>
<polygon fill="none" stroke="black" points="128,-40.8 128,-92.8 260,-92.8 260,-40.8 128,-40.8"/>
</g>
<g id="clust3" class="cluster">
<title>cluster_RoleModule_imports</title>
<polygon fill="none" stroke="black" points="16,-40.8 16,-92.8 120,-92.8 120,-40.8 16,-40.8"/>
</g>
<!-- AuthModule -->
<g id="node1" class="node">
<title>AuthModule</title>
<polygon fill="#8dd3c7" stroke="black" points="111.55,-84.8 108.55,-88.8 87.55,-88.8 84.55,-84.8 24.45,-84.8 24.45,-48.8 111.55,-48.8 111.55,-84.8"/>
<text text-anchor="middle" x="68" y="-62.6" font-family="Times,serif" font-size="14.00">AuthModule</text>
</g>
<!-- RoleModule -->
<g id="node2" class="node">
<title>RoleModule</title>
<polygon fill="#8dd3c7" stroke="black" points="173.99,-149.8 170.99,-153.8 149.99,-153.8 146.99,-149.8 88.01,-149.8 88.01,-113.8 173.99,-113.8 173.99,-149.8"/>
<text text-anchor="middle" x="131" y="-127.6" font-family="Times,serif" font-size="14.00">RoleModule</text>
</g>
<!-- AuthModule&#45;&gt;RoleModule -->
<g id="edge1" class="edge">
<title>AuthModule&#45;&gt;RoleModule</title>
<path fill="none" stroke="black" d="M99.89,-84.91C99.89,-84.91 99.89,-103.79 99.89,-103.79"/>
<polygon fill="black" stroke="black" points="96.39,-103.79 99.89,-113.79 103.39,-103.79 96.39,-103.79"/>
</g>
<!-- RoleService -->
<g id="node3" class="node">
<title>RoleService</title>
<ellipse fill="#fdb462" stroke="black" cx="194" cy="-66.8" rx="58.46" ry="18"/>
<text text-anchor="middle" x="194" y="-62.6" font-family="Times,serif" font-size="14.00">RoleService</text>
</g>
<!-- RoleService&#45;&gt;RoleModule -->
<g id="edge2" class="edge">
<title>RoleService&#45;&gt;RoleModule</title>
<path fill="none" stroke="black" d="M154.88,-80.27C154.88,-80.27 154.88,-103.66 154.88,-103.66"/>
<polygon fill="black" stroke="black" points="151.38,-103.66 154.88,-113.66 158.38,-103.66 151.38,-103.66"/>
</g>
</g>
</svg>
