<?xml version="1.0" encoding="UTF-8" standalone="no"?>
<!DOCTYPE svg PUBLIC "-//W3C//DTD SVG 1.1//EN"
 "http://www.w3.org/Graphics/SVG/1.1/DTD/svg11.dtd">
<!-- Generated by graphviz version 3.0.0 (20220226.1711)
 -->
<!-- Title: dependencies Pages: 1 -->
<svg width="1464pt" height="258pt"
 viewBox="0.00 0.00 1464.00 257.80" xmlns="http://www.w3.org/2000/svg" xmlns:xlink="http://www.w3.org/1999/xlink">
<g id="graph0" class="graph" transform="scale(1 1) rotate(0) translate(4 253.8)">
<title>dependencies</title>
<polygon fill="white" stroke="transparent" points="-4,4 -4,-253.8 1460,-253.8 1460,4 -4,4"/>
<text text-anchor="middle" x="728" y="-8.2" font-family="sans-serif" font-size="14.00">dependencies</text>
<g id="clust1" class="cluster">
<title>cluster_AppModule</title>
<polygon fill="none" stroke="black" stroke-dasharray="1,5" points="8,-32.8 8,-233.8 595,-233.8 595,-32.8 8,-32.8"/>
</g>
<g id="clust3" class="cluster">
<title>cluster_AppModule_imports</title>
<polygon fill="none" stroke="black" points="371,-40.8 371,-157.8 587,-157.8 587,-40.8 371,-40.8"/>
</g>
<g id="clust6" class="cluster">
<title>cluster_AppModule_providers</title>
<polygon fill="none" stroke="black" points="16,-105.8 16,-157.8 363,-157.8 363,-105.8 16,-105.8"/>
</g>
<g id="clust7" class="cluster">
<title>cluster_AuthModule</title>
<polygon fill="none" stroke="black" stroke-dasharray="1,5" points="603,-173.8 603,-241.8 1448,-241.8 1448,-173.8 603,-173.8"/>
</g>
<g id="clust10" class="cluster">
<title>cluster_AuthModule_exports</title>
<polygon fill="none" stroke="black" points="1073,-181.8 1073,-233.8 1440,-233.8 1440,-181.8 1073,-181.8"/>
</g>
<g id="clust12" class="cluster">
<title>cluster_AuthModule_providers</title>
<polygon fill="none" stroke="black" points="611,-181.8 611,-233.8 1065,-233.8 1065,-181.8 611,-181.8"/>
</g>
<g id="clust19" class="cluster">
<title>cluster_UserModule</title>
<polygon fill="none" stroke="black" stroke-dasharray="1,5" points="603,-97.8 603,-165.8 863,-165.8 863,-97.8 603,-97.8"/>
</g>
<g id="clust22" class="cluster">
<title>cluster_UserModule_exports</title>
<polygon fill="none" stroke="black" points="751,-105.8 751,-157.8 855,-157.8 855,-105.8 751,-105.8"/>
</g>
<g id="clust24" class="cluster">
<title>cluster_UserModule_providers</title>
<polygon fill="none" stroke="black" points="611,-105.8 611,-157.8 743,-157.8 743,-105.8 611,-105.8"/>
</g>
<!-- AuthModule -->
<g id="node1" class="node">
<title>AuthModule</title>
<polygon fill="#8dd3c7" stroke="black" points="578.55,-149.8 575.55,-153.8 554.55,-153.8 551.55,-149.8 491.45,-149.8 491.45,-113.8 578.55,-113.8 578.55,-149.8"/>
<text text-anchor="middle" x="535" y="-127.6" font-family="Times,serif" font-size="14.00">AuthModule</text>
</g>
<!-- AppModule -->
<g id="node4" class="node">
<title>AppModule</title>
<polygon fill="#8dd3c7" stroke="black" points="468.66,-225.8 465.66,-229.8 444.66,-229.8 441.66,-225.8 385.34,-225.8 385.34,-189.8 468.66,-189.8 468.66,-225.8"/>
<text text-anchor="middle" x="427" y="-203.6" font-family="Times,serif" font-size="14.00">AppModule</text>
</g>
<!-- AuthModule&#45;&gt;AppModule -->
<g id="edge1" class="edge">
<title>AuthModule&#45;&gt;AppModule</title>
<path fill="none" stroke="black" d="M491.2,-137.8C469.52,-137.8 447.92,-137.8 447.92,-137.8 447.92,-137.8 447.92,-179.77 447.92,-179.77"/>
<polygon fill="black" stroke="black" points="444.42,-179.77 447.92,-189.77 451.42,-179.77 444.42,-179.77"/>
</g>
<!-- AuthService  -->
<g id="node7" class="node">
<title>AuthService </title>
<polygon fill="#fb8072" stroke="black" points="1431.98,-225.8 1342.02,-225.8 1342.02,-189.8 1431.98,-189.8 1431.98,-225.8"/>
<text text-anchor="middle" x="1387" y="-203.6" font-family="Times,serif" font-size="14.00">AuthService </text>
</g>
<!-- AuthModule&#45;&gt;AuthService  -->
<g id="edge7" class="edge">
<title>AuthModule&#45;&gt;AuthService </title>
<path fill="none" stroke="black" stroke-dasharray="5,2" d="M528.75,-149.97C528.75,-153.85 528.75,-156.8 528.75,-156.8 528.75,-156.8 1387,-156.8 1387,-156.8 1387,-156.8 1387,-179.68 1387,-179.68"/>
<polygon fill="black" stroke="black" points="1383.5,-179.68 1387,-189.68 1390.5,-179.68 1383.5,-179.68"/>
</g>
<!-- CaslAbilityFactory  -->
<g id="node8" class="node">
<title>CaslAbilityFactory </title>
<polygon fill="#fb8072" stroke="black" points="1324.32,-225.8 1197.68,-225.8 1197.68,-189.8 1324.32,-189.8 1324.32,-225.8"/>
<text text-anchor="middle" x="1261" y="-203.6" font-family="Times,serif" font-size="14.00">CaslAbilityFactory </text>
</g>
<!-- AuthModule&#45;&gt;CaslAbilityFactory  -->
<g id="edge8" class="edge">
<title>AuthModule&#45;&gt;CaslAbilityFactory </title>
<path fill="none" stroke="black" stroke-dasharray="5,2" d="M516.24,-150.04C516.24,-157.23 516.24,-163.8 516.24,-163.8 516.24,-163.8 1261,-163.8 1261,-163.8 1261,-163.8 1261,-179.65 1261,-179.65"/>
<polygon fill="black" stroke="black" points="1257.5,-179.65 1261,-189.65 1264.5,-179.65 1257.5,-179.65"/>
</g>
<!-- PoliciesGuard  -->
<g id="node9" class="node">
<title>PoliciesGuard </title>
<polygon fill="#fb8072" stroke="black" points="1179.32,-225.8 1080.68,-225.8 1080.68,-189.8 1179.32,-189.8 1179.32,-225.8"/>
<text text-anchor="middle" x="1130" y="-203.6" font-family="Times,serif" font-size="14.00">PoliciesGuard </text>
</g>
<!-- AuthModule&#45;&gt;PoliciesGuard  -->
<g id="edge9" class="edge">
<title>AuthModule&#45;&gt;PoliciesGuard </title>
<path fill="none" stroke="black" stroke-dasharray="5,2" d="M503.73,-149.91C503.73,-159.7 503.73,-169.8 503.73,-169.8 503.73,-169.8 1130,-169.8 1130,-169.8 1130,-169.8 1130,-179.69 1130,-179.69"/>
<polygon fill="black" stroke="black" points="1126.5,-179.69 1130,-189.69 1133.5,-179.69 1126.5,-179.69"/>
</g>
<!-- HealthModule -->
<g id="node2" class="node">
<title>HealthModule</title>
<polygon fill="#8dd3c7" stroke="black" points="475.37,-84.8 472.37,-88.8 451.37,-88.8 448.37,-84.8 378.63,-84.8 378.63,-48.8 475.37,-48.8 475.37,-84.8"/>
<text text-anchor="middle" x="427" y="-62.6" font-family="Times,serif" font-size="14.00">HealthModule</text>
</g>
<!-- HealthModule&#45;&gt;AppModule -->
<g id="edge2" class="edge">
<title>HealthModule&#45;&gt;AppModule</title>
<path fill="none" stroke="black" d="M427,-84.94C427,-84.94 427,-179.73 427,-179.73"/>
<polygon fill="black" stroke="black" points="423.5,-179.72 427,-189.73 430.5,-179.73 423.5,-179.72"/>
</g>
<!-- UserModule -->
<g id="node3" class="node">
<title>UserModule</title>
<polygon fill="#8dd3c7" stroke="black" points="578.99,-84.8 575.99,-88.8 554.99,-88.8 551.99,-84.8 493.01,-84.8 493.01,-48.8 578.99,-48.8 578.99,-84.8"/>
<text text-anchor="middle" x="536" y="-62.6" font-family="Times,serif" font-size="14.00">UserModule</text>
</g>
<!-- UserModule&#45;&gt;AuthModule -->
<g id="edge6" class="edge">
<title>UserModule&#45;&gt;AuthModule</title>
<path fill="none" stroke="black" d="M535.89,-84.91C535.89,-84.91 535.89,-103.79 535.89,-103.79"/>
<polygon fill="black" stroke="black" points="532.39,-103.79 535.89,-113.79 539.39,-103.79 532.39,-103.79"/>
</g>
<!-- UserModule&#45;&gt;AppModule -->
<g id="edge3" class="edge">
<title>UserModule&#45;&gt;AppModule</title>
<path fill="none" stroke="black" d="M492.99,-66.8C487.27,-66.8 483.33,-66.8 483.33,-66.8 483.33,-66.8 483.33,-201.8 483.33,-201.8 483.33,-201.8 478.82,-201.8 478.82,-201.8"/>
<polygon fill="black" stroke="black" points="478.82,-198.3 468.82,-201.8 478.82,-205.3 478.82,-198.3"/>
</g>
<!-- UserService  -->
<g id="node13" class="node">
<title>UserService </title>
<polygon fill="#fb8072" stroke="black" points="846.91,-149.8 759.09,-149.8 759.09,-113.8 846.91,-113.8 846.91,-149.8"/>
<text text-anchor="middle" x="803" y="-127.6" font-family="Times,serif" font-size="14.00">UserService </text>
</g>
<!-- UserModule&#45;&gt;UserService  -->
<g id="edge13" class="edge">
<title>UserModule&#45;&gt;UserService </title>
<path fill="none" stroke="black" stroke-dasharray="5,2" d="M579.19,-60.8C654.76,-60.8 803,-60.8 803,-60.8 803,-60.8 803,-103.52 803,-103.52"/>
<polygon fill="black" stroke="black" points="799.5,-103.52 803,-113.52 806.5,-103.52 799.5,-103.52"/>
</g>
<!-- AppService -->
<g id="node5" class="node">
<title>AppService</title>
<ellipse fill="#fdb462" stroke="black" cx="298" cy="-131.8" rx="56.75" ry="18"/>
<text text-anchor="middle" x="298" y="-127.6" font-family="Times,serif" font-size="14.00">AppService</text>
</g>
<!-- AppService&#45;&gt;AppModule -->
<g id="edge4" class="edge">
<title>AppService&#45;&gt;AppModule</title>
<path fill="none" stroke="black" d="M351.41,-125.8C378.64,-125.8 406.08,-125.8 406.08,-125.8 406.08,-125.8 406.08,-179.6 406.08,-179.6"/>
<polygon fill="black" stroke="black" points="402.58,-179.6 406.08,-189.6 409.58,-179.6 402.58,-179.6"/>
</g>
<!-- PostgresConfigService -->
<g id="node6" class="node">
<title>PostgresConfigService</title>
<ellipse fill="#fdb462" stroke="black" cx="124" cy="-131.8" rx="99.6" ry="18"/>
<text text-anchor="middle" x="124" y="-127.6" font-family="Times,serif" font-size="14.00">PostgresConfigService</text>
</g>
<!-- PostgresConfigService&#45;&gt;AppModule -->
<g id="edge5" class="edge">
<title>PostgresConfigService&#45;&gt;AppModule</title>
<path fill="none" stroke="black" d="M124,-149.81C124,-172.29 124,-207.8 124,-207.8 124,-207.8 375.19,-207.8 375.19,-207.8"/>
<polygon fill="black" stroke="black" points="375.19,-211.3 385.19,-207.8 375.19,-204.3 375.19,-211.3"/>
</g>
<!-- AuthService -->
<g id="node10" class="node">
<title>AuthService</title>
<ellipse fill="#fdb462" stroke="black" cx="998" cy="-207.8" rx="59.11" ry="18"/>
<text text-anchor="middle" x="998" y="-203.6" font-family="Times,serif" font-size="14.00">AuthService</text>
</g>
<!-- AuthService&#45;&gt;AuthModule -->
<g id="edge10" class="edge">
<title>AuthService&#45;&gt;AuthModule</title>
<path fill="none" stroke="black" d="M998,-189.77C998,-182.95 998,-176.8 998,-176.8 998,-176.8 553.76,-176.8 553.76,-176.8 553.76,-176.8 553.76,-159.84 553.76,-159.84"/>
<polygon fill="black" stroke="black" points="557.26,-159.84 553.76,-149.84 550.26,-159.84 557.26,-159.84"/>
</g>
<!-- CaslAbilityFactory -->
<g id="node11" class="node">
<title>CaslAbilityFactory</title>
<ellipse fill="#fdb462" stroke="black" cx="836" cy="-207.8" rx="85.13" ry="18"/>
<text text-anchor="middle" x="836" y="-203.6" font-family="Times,serif" font-size="14.00">CaslAbilityFactory</text>
</g>
<!-- CaslAbilityFactory&#45;&gt;AuthModule -->
<g id="edge11" class="edge">
<title>CaslAbilityFactory&#45;&gt;AuthModule</title>
<path fill="none" stroke="black" d="M754.99,-202.23C754.99,-195.14 754.99,-183.8 754.99,-183.8 754.99,-183.8 541.25,-183.8 541.25,-183.8 541.25,-183.8 541.25,-159.99 541.25,-159.99"/>
<polygon fill="black" stroke="black" points="544.75,-159.99 541.25,-149.99 537.75,-159.99 544.75,-159.99"/>
</g>
<!-- JwtStrategy -->
<g id="node12" class="node">
<title>JwtStrategy</title>
<ellipse fill="#fdb462" stroke="black" cx="676" cy="-207.8" rx="56.77" ry="18"/>
<text text-anchor="middle" x="676" y="-203.6" font-family="Times,serif" font-size="14.00">JwtStrategy</text>
</g>
<!-- JwtStrategy&#45;&gt;AuthModule -->
<g id="edge12" class="edge">
<title>JwtStrategy&#45;&gt;AuthModule</title>
<path fill="none" stroke="black" d="M622.42,-213.8C594.57,-213.8 566.27,-213.8 566.27,-213.8 566.27,-213.8 566.27,-160 566.27,-160"/>
<polygon fill="black" stroke="black" points="569.77,-160 566.27,-150 562.77,-160 569.77,-160"/>
</g>
<!-- UserService -->
<g id="node14" class="node">
<title>UserService</title>
<ellipse fill="#fdb462" stroke="black" cx="677" cy="-131.8" rx="58.46" ry="18"/>
<text text-anchor="middle" x="677" y="-127.6" font-family="Times,serif" font-size="14.00">UserService</text>
</g>
<!-- UserService&#45;&gt;UserModule -->
<g id="edge14" class="edge">
<title>UserService&#45;&gt;UserModule</title>
<path fill="none" stroke="black" d="M677,-113.78C677,-96.43 677,-72.8 677,-72.8 677,-72.8 589.07,-72.8 589.07,-72.8"/>
<polygon fill="black" stroke="black" points="589.07,-69.3 579.07,-72.8 589.07,-76.3 589.07,-69.3"/>
</g>
</g>
</svg>
